# xmcd CD database file
#
# Track frame offsets:
#	150
#	12278
#	25657
#	37008
#	51324
#	64783
#	80385
#	99085
#	114778
#	124355
#	138497
#	150069
#
# Disc length: 2244 seconds
#
# Revision: 0
# Processed by: cddbd v1.5.2PL0 Copyright (c) Steve Scherf et al.
# Submitted via: CDex 1.70beta2
#
DISCID=8a08c20c
DTITLE=Lavery, Laura, and the Country Knights - Cdn. - The Beginning
DYEAR=1900
DGENRE=Country
TTITLE0=You Must Be An Angel In Disguise
TTITLE1=Rose Garden
TTITLE2=I Fall To Peices
TTITLE3=Sunshine For Heartaches
TTITLE4=Don't Be Cruel
TTITLE5=The Fool
TTITLE6=Tenderness
TTITLE7=Right Or Wrondg
TTITLE8=Walking After Midnight
TTITLE9=There's Nothing Left To Say But Goodbye
TTITLE10=Once A Day
TTITLE11=All You Ever Do
EXTD=
EXTT0=
EXTT1=
EXTT2=
EXTT3=
EXTT4=
EXTT5=
EXTT6=
EXTT7=
EXTT8=
EXTT9=
EXTT10=
EXTT11=
PLAYORDER=
